<svg width="45" height="45" viewBox="0 0 45 45" fill="none" xmlns="http://www.w3.org/2000/svg">
<path fill-rule="evenodd" clip-rule="evenodd" d="M22.5 45C34.9264 45 45 34.9264 45 22.5C45 10.0736 34.9264 0 22.5 0C10.0736 0 0 10.0736 0 22.5C0 34.9264 10.0736 45 22.5 45ZM14.5417 11.1875C13.1725 11.1875 12.0625 12.2975 12.0625 13.6667C12.0625 15.0359 13.1725 16.1458 14.5417 16.1458C15.9109 16.1458 17.0208 15.0359 17.0208 13.6667C17.0208 12.2975 15.9109 11.1875 14.5417 11.1875ZM12.2083 18.1875C12.1278 18.1875 12.0625 18.2528 12.0625 18.3333V33.5C12.0625 33.5805 12.1278 33.6458 12.2083 33.6458H16.875C16.9555 33.6458 17.0208 33.5805 17.0208 33.5V18.3333C17.0208 18.2528 16.9555 18.1875 16.875 18.1875H12.2083ZM19.6458 18.3333C19.6458 18.2528 19.7111 18.1875 19.7917 18.1875H24.4583C24.5389 18.1875 24.6042 18.2528 24.6042 18.3333V19.9455L26.1284 19.2923C26.9305 18.9485 27.7894 18.7326 28.6581 18.6536C31.4751 18.3975 33.9375 20.6124 33.9375 23.4436V33.5C33.9375 33.5805 33.8722 33.6458 33.7917 33.6458H29.125C29.0445 33.6458 28.9792 33.5805 28.9792 33.5V25.3333C28.9792 24.7532 28.7487 24.1968 28.3385 23.7865C27.9282 23.3763 27.3718 23.1458 26.7917 23.1458C26.2115 23.1458 25.6551 23.3763 25.2449 23.7865C24.8346 24.1968 24.6042 24.7532 24.6042 25.3333V33.5C24.6042 33.5805 24.5389 33.6458 24.4583 33.6458H19.7917C19.7111 33.6458 19.6458 33.5805 19.6458 33.5V18.3333Z" fill="white"/>
</svg>
