<svg width="45" height="45" viewBox="0 0 45 45" fill="none" xmlns="http://www.w3.org/2000/svg">
<path fill-rule="evenodd" clip-rule="evenodd" d="M22.5 45C34.9264 45 45 34.9264 45 22.5C45 10.0736 34.9264 0 22.5 0C10.0736 0 0 10.0736 0 22.5C0 34.9264 10.0736 45 22.5 45ZM33.7549 15.3135C34.5068 16.0703 34.751 17.7939 34.751 17.7939C34.751 17.7939 35 19.8203 35 21.8418V23.7363C35 25.7627 34.751 27.7842 34.751 27.7842C34.751 27.7842 34.5068 29.5078 33.7549 30.2647C32.8969 31.1622 31.9478 31.255 31.4111 31.3074C31.3522 31.3132 31.2983 31.3184 31.25 31.3242C27.7539 31.5732 22.5 31.583 22.5 31.583C22.5 31.583 16.001 31.5244 13.999 31.334C13.9017 31.3152 13.7831 31.3007 13.6486 31.2843C13.0142 31.207 12.0258 31.0865 11.2402 30.2647C10.4932 29.5078 10.249 27.7842 10.249 27.7842C10.249 27.7842 10 25.7578 10 23.7363V21.8418C10 19.8203 10.2539 17.7939 10.2539 17.7939C10.2539 17.7939 10.4932 16.0703 11.2451 15.3135C12.1031 14.4159 13.0522 14.3232 13.5889 14.2707C13.6478 14.265 13.7017 14.2597 13.75 14.2539C17.2461 14 22.4951 14 22.4951 14H22.5049C22.5049 14 27.7539 14 31.25 14.2539C31.2983 14.2597 31.3522 14.265 31.4111 14.2707C31.9478 14.3232 32.8969 14.4159 33.7549 15.3135ZM19.917 19.0098V26.0361L26.6699 22.5352L19.917 19.0098Z" fill="white"/>
</svg>
